<?xml version="1.0" encoding="utf-8"?>
<!-- Generator: Adobe Illustrator 23.1.1, SVG Export Plug-In . SVG Version: 6.00 Build 0)  -->
<svg version="1.1" id="レイヤー_1" xmlns="http://www.w3.org/2000/svg" xmlns:xlink="http://www.w3.org/1999/xlink" x="0px"
	 y="0px" viewBox="0 0 120 40.09" style="enable-background:new 0 0 120 40.09;" xml:space="preserve">
<style type="text/css">
	.st0{fill:#4C4948;}
	.st1{fill:#1D5088;}
	.st2{opacity:0.6;}
</style>
<g>
	<g>
		<g class="st2">
			<path class="st1" d="M48.74,11.71c0-2.47,1.79-4.32,4.13-4.32c0.86,0,1.64,0.21,2.28,0.59L54.01,9.8
				c-0.3-0.18-0.65-0.27-1.04-0.27c-1.23,0-2.01,0.96-2.01,2.17c0,1.21,0.8,2.07,1.97,2.07c0.43,0,0.86-0.14,1.21-0.38l1.13,1.79
				c-0.68,0.46-1.51,0.73-2.41,0.73C50.41,15.91,48.74,14.17,48.74,11.71z"/>
			<path class="st1" d="M64.11,11.54c0,2.65-1.55,4.37-3.94,4.37c-2.36,0-3.91-1.64-3.91-4.18c0-2.63,1.56-4.34,3.98-4.34
				C62.6,7.39,64.11,9.02,64.11,11.54z M61.88,11.63c0-1.31-0.64-2.14-1.66-2.14c-1.05,0-1.72,0.84-1.72,2.18
				c0,1.31,0.65,2.12,1.7,2.12C61.23,13.8,61.88,12.97,61.88,11.63z"/>
			<path class="st1" d="M72.92,7.51l-2.42,8.29h-2.76l-2.42-8.29h2.26l1.55,5.77l1.53-5.77H72.92z"/>
			<path class="st1" d="M76.34,7.51v8.29h-2.17V7.51H76.34z"/>
			<path class="st1" d="M84.85,11.6c0,4.19-3.32,4.19-4.56,4.19H78V7.51h2.18C81.36,7.51,84.85,7.51,84.85,11.6z M82.62,11.6
				c0-2.04-1.4-2.04-2.41-2.04h-0.05v4.18h0.16C81.38,13.74,82.62,13.74,82.62,11.6z"/>
			<path class="st1" d="M90.47,10.52v2.07h-4.02v-2.07H90.47z"/>
			<path class="st1" d="M95.23,7.51v8.29h-2.17V10.5h-1.12V9.15l1.45-1.64H95.23z"/>
			<path class="st1" d="M102.99,10.39c0,1.59-1.08,3.38-3.33,5.6l-1.72-1.24c0.51-0.51,1.02-1.07,1.45-1.61
				c-1.67-0.45-2.71-1.5-2.71-2.82c0-1.71,1.24-2.92,3.12-2.92C101.85,7.39,102.99,8.68,102.99,10.39z M100.76,10.44
				c0-0.56-0.33-0.91-0.92-0.91c-0.54,0-0.93,0.34-0.93,0.85c0,0.59,0.72,1.02,1.55,1.08C100.65,11.08,100.76,10.73,100.76,10.44z"
				/>
		</g>
		<g>
			<path class="st1" d="M48.21,26.59c0-3.6,2.6-6.29,6.02-6.29c1.25,0,2.39,0.3,3.32,0.86l-1.65,2.65c-0.44-0.26-0.95-0.4-1.51-0.4
				c-1.79,0-2.93,1.39-2.93,3.16c0,1.76,1.16,3.02,2.88,3.02c0.63,0,1.25-0.21,1.76-0.56l1.65,2.6c-1,0.67-2.21,1.07-3.51,1.07
				C50.64,32.7,48.21,30.17,48.21,26.59z"/>
			<path class="st1" d="M69.17,20.46v12.08h-3.16v-4.67h-3.58v4.67h-3.16V20.46h3.16v4.39h3.58v-4.39H69.17z"/>
			<path class="st1" d="M74.76,20.46v12.08H71.6V20.46H74.76z"/>
			<path class="st1" d="M85.73,23.48h-2.69v9.06h-3.16v-9.06h-2.69v-3.02h8.55V23.48z"/>
			<path class="st1" d="M98.14,26.34c0,3.85-2.25,6.36-5.74,6.36c-3.44,0-5.69-2.39-5.69-6.09c0-3.83,2.28-6.32,5.81-6.32
				C95.94,20.3,98.14,22.67,98.14,26.34z M94.89,26.48c0-1.91-0.93-3.11-2.42-3.11c-1.53,0-2.51,1.23-2.51,3.18
				c0,1.9,0.95,3.09,2.49,3.09C93.94,29.64,94.89,28.43,94.89,26.48z"/>
			<path class="st1" d="M100.08,31.29l1.32-2.62c1,0.72,2.18,1.12,3.16,1.12c0.88,0,1.3-0.26,1.3-0.65c0-1.37-5.46-1.46-5.46-5.32
				c0-2.02,1.65-3.51,4.32-3.51c1.74,0,3,0.53,4.18,1.32l-1.28,2.58c-0.88-0.53-1.86-0.97-2.93-0.97c-0.74,0-1.07,0.28-1.07,0.6
				c0,1.42,5.46,1.16,5.46,5.23c0,2.25-1.7,3.65-4.39,3.65C102.92,32.7,101.32,32.19,100.08,31.29z"/>
			<path class="st1" d="M114.61,23.46v1.6h4.04v2.83h-4.04v1.65H120v3h-8.55V20.46H120v3H114.61z"/>
		</g>
	</g>
	<g>
		<path class="st1" d="M38.8,20.05c-9.09,2.67-10.17,5.08-5.49,13.26c-8.18-4.68-10.59-3.6-13.26,5.49
			c-2.67-9.09-5.08-10.17-13.26-5.49c4.68-8.18,3.6-10.59-5.49-13.26c9.09-2.67,10.17-5.08,5.49-13.26
			c8.18,4.68,10.59,3.6,13.26-5.49c2.67,9.09,5.08,10.17,13.26,5.49C28.63,14.96,29.71,17.38,38.8,20.05z"/>
		<path class="st1" d="M23.69,0.88c0,0.48-1.63,2.26-3.65,2.26S16.4,1.36,16.4,0.88S18.03,0,20.05,0S23.69,0.39,23.69,0.88z"/>
		<path class="st1" d="M9.07,3.91c0.34,0.34,0.44,2.75-0.98,4.18C6.66,9.51,4.25,9.41,3.91,9.07C3.57,8.73,4.45,7.3,5.87,5.87
			S8.73,3.57,9.07,3.91z"/>
		<path class="st1" d="M0.88,16.4c0.48,0,2.26,1.63,2.26,3.65s-1.77,3.65-2.26,3.65S0,22.06,0,20.05S0.39,16.4,0.88,16.4z"/>
		<path class="st1" d="M3.91,31.03c0.34-0.34,2.75-0.44,4.18,0.98c1.42,1.42,1.32,3.83,0.98,4.18c-0.34,0.34-1.77-0.54-3.2-1.96
			C4.45,32.8,3.57,31.37,3.91,31.03z"/>
		<path class="st1" d="M16.4,39.22c0-0.48,1.63-2.26,3.65-2.26s3.65,1.77,3.65,2.26c0,0.48-1.63,0.88-3.65,0.88
			S16.4,39.7,16.4,39.22z"/>
		<path class="st1" d="M31.03,36.18c-0.34-0.34-0.44-2.75,0.98-4.18c1.42-1.42,3.83-1.32,4.18-0.98s-0.54,1.77-1.96,3.2
			C32.8,35.65,31.37,36.52,31.03,36.18z"/>
		<path class="st1" d="M39.22,23.69c-0.48,0-2.26-1.63-2.26-3.65s1.77-3.65,2.26-3.65c0.48,0,0.88,1.63,0.88,3.65
			S39.7,23.69,39.22,23.69z"/>
		<path class="st1" d="M36.18,9.07c-0.34,0.34-2.75,0.44-4.18-0.98c-1.42-1.42-1.32-3.83-0.98-4.18s1.77,0.54,3.2,1.96
			C35.65,7.3,36.52,8.73,36.18,9.07z"/>
	</g>
</g>
</svg>
